<?xml version="1.0" encoding="UTF-8"?>
<svg width="172px" height="172px" viewBox="0 0 172 172" version="1.1" xmlns="http://www.w3.org/2000/svg" xmlns:xlink="http://www.w3.org/1999/xlink">
    <!-- Generator: Sketch 58 (84663) - https://sketch.com -->
    <title>编组</title>
    <desc>Created with Sketch.</desc>
    <defs>
        <circle id="path-1" cx="76" cy="76" r="76"></circle>
        <filter x="-9.9%" y="-9.9%" width="119.7%" height="119.7%" filterUnits="objectBoundingBox" id="filter-2">
            <feOffset dx="0" dy="0" in="SourceAlpha" result="shadowOffsetOuter1"></feOffset>
            <feGaussianBlur stdDeviation="5" in="shadowOffsetOuter1" result="shadowBlurOuter1"></feGaussianBlur>
            <feColorMatrix values="0 0 0 0 0   0 0 0 0 0   0 0 0 0 0  0 0 0 0.0720880682 0" type="matrix" in="shadowBlurOuter1"></feColorMatrix>
        </filter>
    </defs>
    <g id="页面-1" stroke="none" stroke-width="1" fill="none" fill-rule="evenodd">
        <g id="iPhone-8" transform="translate(-116.000000, -175.000000)">
            <g id="编组" transform="translate(126.000000, 185.000000)">
                <g id="椭圆形">
                    <use fill="black" fill-opacity="1" filter="url(#filter-2)" xlink:href="#path-1"></use>
                    <use fill="#FFFFFF" fill-rule="evenodd" xlink:href="#path-1"></use>
                </g>
                <g id="54" transform="translate(26.000000, 39.000000)" fill="#49A0F8" fill-rule="nonzero">
                    <path d="M49.8723214,13.5544643 C66.5580357,13.5544643 80.1008929,27.0973214 80.1008929,43.7830357 C80.1008929,44.86875 80.04375,46.0116071 79.9294643,47.0401786 C76.5008929,48.6401786 72.7866071,49.8973214 68.9008929,50.8116071 C65.4723214,51.6116071 61.8151786,52.1830357 58.04375,52.46875 C57.1294643,50.7544643 55.3008929,49.6116071 53.24375,49.6116071 L47.1866071,49.6116071 C44.2151786,49.6116071 41.7580357,52.06875 41.7580357,55.0401786 C41.7580357,58.0116071 44.2151786,60.46875 47.1866071,60.46875 L53.24375,60.46875 C55.4723214,60.46875 57.4151786,59.0973214 58.2151786,57.2116071 C62.2723214,56.86875 66.2151786,56.2973214 69.9294643,55.4401786 C73.0151786,54.6973214 75.9294643,53.8401786 78.7294643,52.6973214 C74.9008929,65.0401786 63.4151786,74.0116071 49.8151786,74.0116071 C33.1294643,74.0116071 19.5866071,60.46875 19.5866071,43.7830357 C19.5866071,27.0973214 33.1294643,13.5544643 49.8723214,13.5544643 Z M50.1008929,0.06875 C37.9866071,0.06875 27.0723214,4.98303571 19.1294643,12.9258929 C14.04375,18.0116071 10.2151786,24.2973214 8.10089286,31.3830357 L6.55803571,31.3830357 C3.01517857,31.3830357 0.100892857,34.2973214 0.100892857,37.8401786 L0.100892857,47.8973214 C0.100892857,51.4401786 3.01517857,54.3544643 6.55803571,54.3544643 L15.0151786,54.3544643 L15.0151786,32.2401786 C16.84375,26.6973214 19.9294643,21.7830357 23.9866071,17.7830357 C30.6723214,11.0973214 39.9294643,6.92589286 50.1580357,6.92589286 C60.3866071,6.92589286 69.64375,11.0401786 76.3294643,17.7830357 C80.1580357,21.6116071 83.1866071,26.3544643 85.0151786,31.5544643 L85.0151786,54.4116071 L93.4151786,54.4116071 C96.9580357,54.4116071 99.8723214,51.4973214 99.8723214,47.9544643 L99.8723214,37.8401786 C99.8723214,34.2973214 96.9580357,31.3830357 93.4151786,31.3830357 L92.1008929,31.3830357 C89.9866071,24.2973214 86.1580357,18.0116071 81.0723214,12.9258929 C73.1866071,4.98303571 62.2151786,0.06875 50.1008929,0.06875 Z" id="形状"></path>
                </g>
            </g>
        </g>
    </g>
</svg>